<svg width="71" height="71" viewBox="0 0 71 71" fill="none" xmlns="http://www.w3.org/2000/svg">
<path d="M6.66558 9.80447L0.650448 3.79213C0.444231 3.58585 0.28065 3.34097 0.169046 3.07146C0.0574421 2.80195 2.17286e-09 2.51309 0 2.22138C-2.17286e-09 1.92966 0.0574421 1.6408 0.169046 1.37129C0.28065 1.10178 0.444231 0.8569 0.650448 0.650626C0.856666 0.444352 1.10148 0.280727 1.37092 0.169092C1.64035 0.0574578 1.92913 -2.17345e-09 2.22077 0C2.51241 2.17345e-09 2.80119 0.0574578 3.07062 0.169092C3.34006 0.280727 3.58488 0.444352 3.79109 0.650626L70.3302 67.2079C70.7466 67.6245 70.9806 68.1895 70.9806 68.7786C70.9806 69.3678 70.7466 69.9328 70.3302 70.3494C69.9137 70.766 69.3488 71 68.7598 71C68.1709 71 67.606 70.766 67.1895 70.3494L62.9754 66.1341C61.9995 66.4092 60.9703 66.5601 59.9101 66.5601H11.1148C8.17362 66.5601 5.35287 65.3913 3.27312 63.311C1.19337 61.2307 0.0249818 58.4092 0.0249818 55.4672V19.97C0.0240989 17.8133 0.651767 15.7031 1.83118 13.8976C3.01059 12.0921 4.69059 10.6697 6.66558 9.80447V9.80447ZM58.9653 62.1229L46.3672 49.5214C42.953 52.1719 38.689 53.4849 34.3757 53.2138C30.0623 52.9428 25.9961 51.1063 22.9404 48.0492C19.8846 44.9921 18.0494 40.9245 17.7792 36.6099C17.509 32.2953 18.8223 28.0304 21.4727 24.6157L10.2321 13.3719C8.63587 13.5867 7.17173 14.3734 6.11127 15.5859C5.05081 16.7984 4.46601 18.3545 4.46536 19.9655V55.4672C4.46536 57.2324 5.16639 58.9253 6.41424 60.1735C7.66209 61.4217 9.35454 62.1229 11.1193 62.1229H58.9742H58.9653ZM43.2 46.3488L24.6444 27.7882C22.8185 30.3523 21.9602 33.4807 22.2218 36.6178C22.4834 39.7549 23.8481 42.6978 26.0735 44.9238C28.2989 47.1498 31.241 48.5149 34.3772 48.7766C37.5135 49.0383 40.6411 48.1797 43.2044 46.3533L43.2 46.3488ZM28.5614 19.158L32.0436 22.6411C34.2999 22.0411 36.6743 22.0445 38.9289 22.6512C41.1835 23.2578 43.2392 24.4463 44.8901 26.0977C46.541 27.749 47.7292 29.8053 48.3356 32.0605C48.9421 34.3157 48.9455 36.6907 48.3457 38.9477L51.8279 42.4308C53.2116 39.1746 53.5908 35.5789 52.9167 32.1055C52.2426 28.6321 50.5461 25.4395 48.0448 22.9376C45.5436 20.4357 42.3519 18.7387 38.8794 18.0644C35.407 17.3901 31.8123 17.7694 28.5569 19.1535L28.5614 19.158ZM66.5641 55.4672C66.5641 55.9908 66.502 56.501 66.3866 56.9936L69.8289 60.4323C70.6011 58.8913 71.0022 57.191 71 55.4672V19.97C71 17.028 69.8316 14.2064 67.7518 12.1261C65.6721 10.0458 62.8514 8.8771 59.9101 8.8771H52.4134L49.8184 3.68564C49.2661 2.57916 48.4166 1.64847 47.3651 0.997958C46.3136 0.347447 45.1017 0.00284415 43.8654 0.00280237H27.1685C25.9355 0.00284042 24.7268 0.345566 23.6772 0.992739C22.6275 1.63991 21.7784 2.56607 21.2243 3.66789L18.6071 8.8771H18.2833L21.7877 12.3825C21.8511 12.2907 21.9074 12.1943 21.9563 12.094L25.1856 5.66461C25.37 5.29656 25.6531 4.98708 26.0033 4.7708C26.3535 4.55452 26.7569 4.43997 27.1685 4.43995H43.8654C44.2769 4.43997 44.6804 4.55452 45.0305 4.7708C45.3807 4.98708 45.6638 5.29656 45.8482 5.66461L49.0554 12.0852C49.2401 12.4539 49.5239 12.7638 49.875 12.9801C50.226 13.1965 50.6304 13.3106 51.0427 13.3098H59.9101C61.6749 13.3098 63.3673 14.011 64.6152 15.2592C65.863 16.5074 66.5641 18.2003 66.5641 19.9655V55.4672V55.4672Z" fill="#979797"/>
</svg>
